<?xml version="1.0" encoding="UTF-8"?>
<svg id="Calque_1" data-name="Calque 1" xmlns="http://www.w3.org/2000/svg" viewBox="0 0 358.32 85.38">
  <defs>
    <style>
      .cls-1 {
        fill: #fff;
      }

      .cls-2 {
        fill: #df0a14;
      }

      .cls-3 {
        fill: none;
        stroke: #fff;
        stroke-miterlimit: 10;
        stroke-width: .28px;
      }

      .cls-4 {
        fill: #274194;
      }
    </style>
  </defs>
  <path class="cls-1" d="M29.9,8.79c-3.66,0-7.32.02-10.98-.02-.62,0-.87.17-.99.78-.66,3.33-1.33,6.66-2.07,9.97-.16.74.06.75.65.75,7.12-.02,14.25,0,21.37-.03.8,0,.98.15.79.96-.5,2.07-.91,4.17-1.32,6.26-.11.56-.3.75-.92.75-7.18-.03-14.36,0-21.54-.04-.67,0-.89.19-1.02.83-1.28,6.3-2.61,12.58-3.9,18.88-.12.56-.32.75-.92.74-2.79-.04-5.58-.05-8.36,0-.72.01-.76-.23-.64-.81,1.72-8.18,3.44-16.36,5.15-24.55,1.5-7.17,2.99-14.34,4.46-21.51.14-.68.36-.93,1.11-.93,10.56.03,21.12.03,31.68,0,.81,0,.97.17.77.96-.51,2.07-.94,4.16-1.34,6.25-.11.58-.32.75-.92.75-3.69-.03-7.38-.02-11.07-.02Z"/>
  <path class="cls-1" d="M90.98,48.61c-2.95,0-5.85,0-8.75,0-.46,0-.49-.3-.55-.58-.2-1.02-.38-2.04-.58-3.1-.63.55-1.22,1.14-1.88,1.63-3.27,2.45-6.9,3.59-10.94,2.54-3.77-.97-6.13-3.51-6.86-7.31-.7-3.62-.19-7.07,2.39-9.94,1.75-1.95,4.12-2.75,6.59-3.33,2.61-.62,5.29-.69,7.95-1,1.73-.2,3.46-.42,5.16-.83.51-.12.76-.38.86-.87.16-.74.35-1.47.38-2.24.05-1.35-.57-2.32-1.7-2.98-1.87-1.1-5.53-.82-7.24.52-.72.57-1.27,1.29-1.55,2.16-.15.45-.37.54-.8.5-2.69-.24-5.38-.47-8.07-.68-.77-.06-.35-.49-.25-.74,1.38-3.53,3.71-6.27,7.26-7.68,5.3-2.1,10.72-2.25,16.05-.15,3.73,1.47,5.67,5,5.32,8.98-.34,3.93-1.42,7.72-2.21,11.57-.53,2.61-1.14,5.21-1.31,7.88-.13,1.9.24,3.74.74,5.63ZM74.33,42.34c3.29,0,6.15-1.96,7.31-5.01.53-1.39.83-2.85,1.16-4.3.1-.44-.02-.53-.45-.46-1.16.2-2.34.34-3.5.53-2.08.34-4.16.69-6.11,1.54-1.18.51-2.13,1.27-2.54,2.54-.9,2.73,1.06,5.16,4.14,5.15Z"/>
  <path class="cls-1" d="M246.58,39.21c-2.46,6.08-8.64,10.21-15.19,10.26-3.83.03-7.37-.75-10.44-3.15-3.56-2.79-5.34-6.54-5.7-10.96-.47-5.7.86-10.93,4.45-15.48,3.49-4.42,8.15-6.48,13.7-6.7,2.09-.08,4.17.03,6.17.73,4.74,1.66,7.41,5.12,8.38,9.92.66,3.23.51,6.48-.07,9.72-.11.62-.35.74-.93.74-7.24-.02-14.48-.01-21.72-.01-1.08,0-1.12.04-1.05,1.13.12,2.08.69,3.98,2.26,5.46,2.79,2.63,7.27,2.38,9.99-.54.6-.64,1.11-1.35,1.54-2.11.15-.27.29-.44.65-.38,2.58.43,5.16.85,7.74,1.28.08.01.15.07.22.1ZM225.19,28.53c4.78,0,9.45,0,14.12,0,.29,0,.47-.04.48-.4.06-2.08-.1-4.11-1.38-5.86-1.88-2.58-5.78-3.11-8.73-1.24-2.72,1.73-3.87,4.4-4.49,7.49Z"/>
  <path class="cls-1" d="M356.47,39.23c-2.66,5.52-6.82,9.12-13.02,10.04-3.43.51-6.81.22-9.97-1.32-4.67-2.28-7.39-6.08-8.17-11.16-.98-6.45.43-12.35,4.67-17.43,3.46-4.14,8.03-6,13.35-6.19,2.85-.11,5.62.22,8.17,1.63,3.92,2.19,5.86,5.69,6.49,10,.42,2.88.29,5.77-.22,8.64-.12.66-.35.84-1.02.84-7.24-.03-14.48,0-21.72-.04-.86,0-1.04.3-1,1.06.13,2.11.67,4.05,2.26,5.55,2.78,2.64,7.26,2.4,9.99-.52.6-.64,1.11-1.35,1.54-2.11.15-.26.27-.46.64-.4,2.61.44,5.21.86,7.82,1.3.05,0,.1.05.19.1ZM335.05,28.53c4.78,0,9.44,0,14.11,0,.28,0,.47-.02.48-.39.06-2.1-.1-4.17-1.42-5.92-1.9-2.53-5.76-3.03-8.67-1.18-2.72,1.73-3.87,4.4-4.5,7.49Z"/>
  <path class="cls-1" d="M117.17,48.61c.82-3.79,1.64-7.51,2.43-11.24.9-4.31,2-8.59,2.66-12.95.52-3.44-2.14-4.89-4.65-4.39-3.87.78-6.51,3.22-8.07,6.76-1.33,3.02-1.82,6.3-2.5,9.51-.82,3.87-1.62,7.75-2.39,11.63-.11.55-.32.71-.88.7-2.65-.03-5.3-.03-7.94,0-.57,0-.71-.13-.59-.7,2.31-11.04,4.6-22.09,6.89-33.14.12-.59.34-.8.98-.79,2.42.04,4.85.06,7.27,0,.81-.02.84.26.69.89-.25,1.11-.45,2.22-.7,3.49,1.05-.79,1.95-1.51,2.89-2.16,3.38-2.35,7.1-3.46,11.23-2.92,5.05.66,7.95,4.9,7.28,10.06-.74,5.6-2.24,11.06-3.35,16.59-.55,2.72-1.17,5.43-1.75,8.15-.06.28-.06.54-.47.53-2.98-.01-5.97,0-9.01,0Z"/>
  <path class="cls-1" d="M264.32,14.02c-.28,1.45-.54,2.83-.83,4.36.8-.62,1.47-1.15,2.16-1.66,3.11-2.32,6.53-3.63,10.49-3.57,5.91.1,9.45,4.45,8.75,10.15-.63,5.1-2.01,10.07-3.03,15.1-.66,3.22-1.38,6.42-2.05,9.63-.08.38-.16.58-.61.58-2.93-.02-5.86-.01-8.88-.01.48-2.24.96-4.41,1.42-6.59,1.18-5.6,2.5-11.18,3.55-16.81.11-.58.25-1.16.19-1.75-.28-2.8-2.63-4.23-5.6-3.25-4.1,1.35-6.65,4.25-7.87,8.35-1.24,4.15-1.94,8.42-2.86,12.64-.49,2.25-.94,4.51-1.39,6.76-.1.48-.28.67-.82.67-2.68-.03-5.35-.03-8.03,0-.54,0-.67-.13-.56-.66,2.32-11.1,4.62-22.2,6.94-33.3.05-.25-.03-.65.47-.65,2.84,0,5.68,0,8.56,0Z"/>
  <path class="cls-1" d="M308.16,48.61c1.16-5.37,2.31-10.66,3.45-15.96.58-2.72,1.23-5.42,1.63-8.17.53-3.58-2.23-4.95-4.67-4.45-3.87.8-6.51,3.23-8.06,6.78-1.33,3.05-1.82,6.35-2.51,9.59-.81,3.84-1.6,7.69-2.39,11.54-.09.46-.24.7-.8.69-2.68-.04-5.35-.04-8.03,0-.62,0-.67-.19-.56-.72,2.3-11.02,4.6-22.03,6.87-33.06.13-.63.33-.86,1.01-.85,2.67.05,5.34.02,8.07.02-.28,1.44-.54,2.81-.83,4.36.82-.63,1.51-1.17,2.21-1.69,3.12-2.31,6.55-3.61,10.5-3.53,5.86.13,9.37,4.45,8.69,10.13-.57,4.83-1.89,9.52-2.85,14.28-.71,3.49-1.49,6.97-2.24,10.45-.06.29-.03.6-.51.6-2.98-.02-5.96,0-8.99,0Z"/>
  <path class="cls-1" d="M153.96,13.13c3,.02,5.85.55,8.38,2.21,3.3,2.16,4.99,5.3,5.5,9.15.05.41-.03.61-.49.65-2.6.26-5.2.54-7.8.84-.45.05-.61-.05-.69-.53-.24-1.48-.67-2.91-1.89-3.93-1.8-1.51-4.61-1.65-6.98-.35-1.87,1.02-3.23,2.53-4.13,4.43-1.68,3.53-2.52,7.27-2.32,11.18.23,4.54,4.39,6.77,8.35,4.54,1.09-.62,2.01-1.44,2.74-2.46.61-.85,1.11-1.76,1.45-2.74.16-.45.38-.51.82-.44,2.63.45,5.27.89,7.9,1.3.49.08.62.19.43.69-3.23,8.31-10.29,12.74-19.1,11.66-6.99-.86-11.51-5.84-11.92-12.88-.25-4.37.38-8.58,2.32-12.52,3.55-7.2,9.6-10.45,17.42-10.78Z"/>
  <path class="cls-1" d="M202,.85c-1.1,5.27-2.17,10.46-3.25,15.65-2.18,10.44-4.37,20.88-6.53,31.32-.13.61-.33.81-.97.8-2.62-.04-5.24-.04-7.86,0-.6,0-.76-.12-.64-.73,1.94-9.23,3.87-18.46,5.8-27.69,1.28-6.1,2.57-12.19,3.8-18.3.17-.87.48-1.1,1.34-1.07,2.48.07,4.96.02,7.44.02.28,0,.55,0,.87,0Z"/>
  <path class="cls-1" d="M52.05,20.17c1.15-1.36,2.21-2.73,3.48-3.93,3.07-2.88,6.55-3.91,10.62-2.38.57.21.72.4.42,1.01-1.05,2.14-2.03,4.32-3.03,6.48-.14.3-.23.59-.72.45-3.7-1.04-6.52.52-8.94,3.11-2.19,2.34-3.05,5.32-3.83,8.32-1.26,4.86-2.13,9.81-3.19,14.72-.11.52-.29.67-.82.67-2.68-.03-5.35-.03-8.03,0-.57,0-.69-.1-.57-.7,2.31-11.01,4.61-22.03,6.88-33.05.14-.66.35-.9,1.07-.88,2.36.06,4.73.04,7.1,0,.66,0,.87.08.69.82-.44,1.77-.77,3.56-1.14,5.34Z"/>
  <path class="cls-1" d="M183.76,14.02c-.99,4.75-1.95,9.42-2.92,14.09-1.38,6.62-2.79,13.23-4.15,19.86-.11.55-.31.66-.82.65-2.68-.02-5.35-.02-8.03,0-.54,0-.72-.06-.59-.68,2.31-10.98,4.6-21.97,6.86-32.97.17-.81.48-.99,1.26-.98,2.51.05,5.01.02,7.52.02h.87Z"/>
  <path class="cls-1" d="M214.86,14.02c-1.09,5.25-2.16,10.42-3.24,15.58-1.28,6.13-2.58,12.25-3.84,18.38-.11.56-.32.65-.82.65-2.68-.02-5.35-.02-8.03,0-.55,0-.71-.07-.58-.69,2.31-10.98,4.6-21.97,6.87-32.96.15-.71.36-1,1.17-.98,2.78.07,5.57.03,8.47.03Z"/>
  <path class="cls-1" d="M281.36,65.96c.31-1.84.58-3.69.92-5.52.42-2.23.92-4.45,1.34-6.69.09-.48.3-.58.73-.57,1.04.02,2.09.03,3.13,0,.58-.02.77.07.63.74-1.31,6.03-2.58,12.08-3.87,18.12-.18.82-.06,1.91-.64,2.38-.62.5-1.68.14-2.54.15-1.92.02-1.93,0-2.29-1.93-.67-3.61-1.52-7.19-1.94-10.86-.48,2.77-.89,5.54-1.46,8.28-.27,1.32-.59,2.63-.83,3.96-.09.48-.29.59-.73.58-1.1-.02-2.2-.03-3.3,0-.53.01-.58-.15-.47-.64,1.44-6.67,2.86-13.34,4.25-20.02.13-.62.37-.77.95-.74,1.01.04,2.03.04,3.04,0,.51-.02.73.11.82.66.69,4.03,1.62,8.02,2.25,12.11Z"/>
  <path class="cls-1" d="M314.56,63.54c1.34.71,1.64,1.83,1.44,3.12-.24,1.5-.56,2.98-.81,4.47-.14.88-.28,1.76.06,2.65.16.41.04.82-.61.79-1.21-.04-2.42-.03-3.63,0-.53.02-.67-.17-.68-.68-.02-1.73.43-3.39.76-5.07.55-2.76.3-3.11-2.48-3.2q-1.53-.05-1.85,1.45c-.49,2.28-1,4.55-1.45,6.83-.11.55-.32.68-.83.66-1.04-.03-2.08-.02-3.12,0-.47,0-.7-.02-.57-.64,1.45-6.69,2.87-13.38,4.29-20.08.07-.32.05-.69.56-.67,2.92.08,5.86-.18,8.77.14,2.86.31,4.13,2.1,3.59,4.94-.42,2.19-1.18,4.17-3.44,5.28ZM309.41,62.25c2.45.23,3.63-1.05,3.84-3.61.08-1.06-.26-1.47-1.3-1.54-.84-.06-1.69,0-2.53-.03-.41-.01-.52.19-.59.54-.2,1.05-.45,2.09-.66,3.13-.31,1.5-.3,1.5,1.25,1.5Z"/>
  <path class="cls-1" d="M327.86,73.53c-1.77,1.64-3.84,1.84-6.06,1.24-2.03-.54-3.09-1.92-3.18-4.04-.08-2.05.37-4.02.79-6,.47-2.25.93-4.51,1.74-6.67,1.54-4.11,4.01-5.4,8.27-5.37.53,0,1.07.08,1.59.16,2.78.41,4.22,2.54,3.81,5.63q-.24,1.8-2.05,1.8c-.73,0-1.46-.01-2.2,0-.41,0-.64-.06-.49-.56.11-.37.14-.77.18-1.16.15-1.53-.7-2.32-2.24-2.12-1.07.14-1.79.74-2.29,1.66-.49.9-.71,1.89-.91,2.88-.51,2.47-1.02,4.94-1.53,7.42-.06.27-.07.56-.07.84,0,.75.09,1.5.85,1.89.79.4,1.6.27,2.32-.21,1.07-.71,1.54-1.83,1.91-2.99q.47-1.46-1.06-1.46-1.25,0-1-1.18c.03-.14.07-.27.1-.41q.46-2.07,2.53-2.07c1.44,0,2.87.02,4.31,0,.51,0,.67.06.54.64-.78,3.51-1.51,7.02-2.24,10.54-.09.45-.26.62-.72.6-.65-.03-1.3-.06-1.94,0-.8.09-1.06-.21-.86-.96.12-.08.1-.17.04-.28-.05.06-.1.12-.15.18Z"/>
  <path class="cls-1" d="M292.58,74.57c-1.69,0-3.38-.03-5.07.01-.66.02-.74-.22-.61-.79,1.32-6.12,2.61-12.24,3.93-18.35.16-.73.04-1.75.59-2.11.53-.36,1.46-.13,2.22-.14,2.82,0,5.63.02,8.45-.02.65,0,.78.21.62.78-.16.6-.36,1.2-.39,1.81-.05.97-.53,1.14-1.41,1.11-1.74-.07-3.49,0-5.24-.03-.48,0-.69.11-.78.61-.19,1.1-.44,2.2-.71,3.29-.13.54-.04.74.57.73,1.72-.04,3.43,0,5.15-.02.51,0,.62.14.5.62-.21.81-.39,1.64-.51,2.47-.07.52-.31.62-.78.61-1.75-.02-3.49,0-5.24-.02-.43,0-.66.1-.75.56-.3,1.54-.62,3.08-.98,4.61-.12.53.07.61.54.61,1.89-.02,3.77,0,5.66-.02.52,0,.81.05.59.69-.18.56-.25,1.15-.38,1.72q-.27,1.26-1.58,1.26c-1.46,0-2.93,0-4.39,0Z"/>
  <path class="cls-1" d="M261.14,71.25c2.11-.1,4.16-.15,6.2-.32.85-.07.94.18.75.89-.2.73-.36,1.47-.48,2.22-.07.43-.26.55-.67.54-3.46-.01-6.93-.01-10.39,0-.51,0-.6-.12-.49-.63,1.44-6.72,2.86-13.45,4.28-20.17.09-.42.25-.6.72-.6,3.44.02,6.87.02,10.31,0,.56,0,.67.14.52.68-.22.78-.38,1.58-.5,2.39-.08.49-.29.63-.78.62-1.91-.03-3.83.01-5.74-.03-.55-.01-.73.2-.82.68-.2,1.05-.4,2.1-.67,3.13-.18.7.06.84.72.83,1.63-.04,3.27.02,4.9-.03.63-.02.72.23.58.74,0,.03,0,.06-.02.08-.28.93-.08,2.25-.77,2.74-.64.45-1.84.13-2.8.14-1.01,0-2.03.01-3.04,0-.37,0-.54.11-.62.49-.37,1.84-.77,3.67-1.18,5.61Z"/>
  <path class="cls-1" d="M353.21,53.19c-1.73,2.58-3.36,5-4.98,7.43-.02.02-.03.05-.05.07q-3.36,4.88-4.52,10.66c-.18.88-.38,1.76-.54,2.64-.08.43-.26.61-.73.59-1.04-.04-2.09-.06-3.12,0-.74.04-.76-.26-.63-.84.57-2.6,1.1-5.21,1.67-7.82.07-.34.07-.65-.01-.98-.88-3.65-1.73-7.32-2.64-10.96-.17-.67-.03-.83.63-.8,1.12.05,2.25.04,3.38,0,.51-.02.73.12.82.67.38,2.23.82,4.44,1.25,6.74,1.35-2.23,2.69-4.39,3.98-6.58.35-.6.72-.87,1.45-.84,1.28.07,2.58.02,4.05.02Z"/>
  <path class="cls-1" d="M175.49,8.89c.58-2.79,1.17-5.58,1.74-8.38.09-.42.31-.51.7-.5,2.87.01,5.74.02,8.6,0,.6,0,.62.22.52.7-.55,2.52-1.09,5.04-1.6,7.56-.08.42-.2.69-.66.69-.31-.01-.61-.04-.92-.04-2.8-.01-5.59-.02-8.39-.02Z"/>
  <path class="cls-1" d="M206.52,8.95c-.2-1.03.26-1.97.44-2.94.32-1.82.76-3.62,1.13-5.43.07-.32.1-.58.54-.58,3.12.01,6.23,0,9.41,0-.6,2.87-1.18,5.66-1.77,8.45-.05.21-.07.46-.37.49-3.13-.07-6.25-.07-9.38,0Z"/>
  <path class="cls-1" d="M255.54,80.65c0-.59-.02-1.18,0-1.77.01-.24-.18-.65.26-.67.32-.02.77-.26.97.19.16.36.29.21.49.08.81-.54,1.62-.64,2.34.14.27.29.4.01.54-.1.58-.46,1.22-.6,1.89-.29.68.31.82.95.83,1.63.01.87-.03,1.74.03,2.61.04.62-.29.62-.72.59-.38-.03-.88.18-.84-.56.05-.78.02-1.57,0-2.36,0-.37-.04-.8-.54-.78-.47.02-.87.23-.86.82.01.76-.05,1.52.02,2.27.06.7-.36.6-.78.61-.47.02-.8,0-.75-.65.06-.78.01-1.57,0-2.36,0-.4-.14-.76-.63-.7-.4.05-.76.23-.75.74,0,.73-.05,1.47.01,2.19.06.66-.19.77-.8.79-.71.03-.79-.26-.75-.83.04-.53,0-1.07,0-1.6Z"/>
  <path class="cls-1" d="M278.42,82.88c-1.43.43-2.18.28-2.74-.53-.66-.97-.62-2.58.09-3.49.61-.78,1.52-.99,2.4-.57.23.11.32.28.66-.02.51-.45,1.11-.05,1.11.65,0,1.77-.03,3.54.02,5.31.02.66-.32.63-.78.63-.45,0-.85.03-.77-.63.05-.44,0-.88,0-1.34ZM278.42,80.57c-.07-.48.3-1.3-.75-1.26-.82.04-.86.7-.89,1.29-.05.86.34,1.38.92,1.34.92-.05.72-.75.73-1.37Z"/>
  <path class="cls-1" d="M311.99,80.63c0-.59-.01-1.18,0-1.77,0-.23-.14-.59.2-.64.33-.05.8-.22,1,.13.19.34.29.27.55.13,1.65-.88,2.68-.31,2.76,1.55.04.84-.02,1.69.02,2.53.03.61-.37.52-.72.49-.33-.03-.85.24-.83-.47.02-.79.01-1.57,0-2.36,0-.43-.01-.91-.64-.86-.54.04-.86.32-.83.94.04.76-.01,1.52.01,2.27.03.7-.48.46-.82.48-.33.02-.77.16-.73-.47.04-.64,0-1.29,0-1.94Z"/>
  <path class="cls-1" d="M286.5,80.66c0,.59.02,1.18,0,1.77,0,.22.16.58-.23.6-.34.02-.83.23-.99-.17-.22-.54-.36-.18-.56-.06-1.35.86-2.55.28-2.66-1.33-.06-.92,0-1.85-.03-2.78-.03-.68.43-.51.79-.52.35-.01.75-.11.72.5-.03.78-.02,1.57.01,2.36.02.41.04.9.67.84.53-.05.79-.35.77-.9-.02-.76.03-1.52-.01-2.27-.04-.68.42-.51.78-.52.38,0,.81-.13.76.54-.05.64-.01,1.29-.01,1.94Z"/>
  <path class="cls-1" d="M268.92,81.32c0,.31,0,.62,0,.93,0,.77-.45,1.16-1.05.74-.52-.36-.76-.06-1.11.07-.71.25-1.36.16-1.83-.43-.45-.56-.47-1.21-.02-1.79.42-.55,1.08-.67,1.71-.82.25-.06.73.08.66-.37-.06-.4-.49-.4-.84-.35-.22.03-.46.07-.64.19-.56.37-.66-.1-.84-.42-.27-.45.14-.51.39-.64.46-.23.96-.32,1.46-.35,1.2-.05,1.92.54,2.07,1.74.06.5.01,1.01.01,1.51,0,0,.02,0,.03,0ZM266.75,82.01c.29-.11.72-.19.66-.78-.02-.19.02-.44-.29-.37-.43.1-.94.13-1.04.69-.06.36.24.46.67.46Z"/>
  <path class="cls-1" d="M327.91,81.27c0,.34,0,.67,0,1.01,0,.72-.61,1.13-1.16.68-.39-.31-.53-.12-.8,0-.94.44-1.88.16-2.22-.66-.37-.86.02-1.68,1.02-2.06.36-.14.76-.19,1.14-.28.18-.04.44-.01.41-.29-.02-.21-.19-.33-.4-.38-.4-.09-.8-.03-1.14.18-.51.32-.6-.1-.79-.39-.27-.41.03-.52.32-.66.49-.24,1.01-.35,1.55-.37,1.16-.04,1.87.53,2.03,1.69.07.5.01,1.01.01,1.51.01,0,.02,0,.03,0ZM325.66,82.01c.36-.07.77-.17.74-.75-.01-.23.02-.49-.34-.39-.42.12-.94.15-.99.73-.03.3.24.41.59.41Z"/>
  <path class="cls-1" d="M309.99,81.27c0,.34,0,.67,0,1.01,0,.72-.6,1.11-1.17.68-.33-.25-.46-.2-.73-.04-.37.22-.78.33-1.21.23-.64-.14-1.05-.52-1.17-1.17-.12-.65.11-1.15.67-1.5.49-.3,1.03-.42,1.59-.5.18-.03.43-.02.41-.29-.02-.21-.19-.33-.4-.38-.37-.08-.74-.04-1.06.15-.48.3-.66.03-.87-.35-.28-.51.13-.56.41-.7.46-.23.96-.32,1.47-.33,1.16-.04,1.87.53,2.02,1.69.07.5.01,1.01.01,1.51.01,0,.02,0,.03,0ZM307.82,82.01c.29-.11.72-.19.66-.78-.02-.19.02-.44-.29-.37-.43.1-.94.13-1.04.69-.06.36.24.46.67.46Z"/>
  <path class="cls-1" d="M291.13,81.05c-.25,0-.51-.02-.76,0-.2.02-.51-.13-.59.15-.08.27.15.46.37.6.43.28.92.32,1.37.1.55-.27.71.09.86.45.2.48-.28.48-.52.58-1.24.52-2.58.17-3.24-.82-.69-1.02-.53-2.56.35-3.41.7-.67,1.83-.85,2.66-.41.74.4,1.19,1.4,1.07,2.31-.04.3-.13.46-.47.44-.36-.02-.73,0-1.1,0ZM290.52,80.1c.27-.15.76.21.83-.27.05-.39-.32-.64-.74-.63-.43,0-.85.23-.84.65.01.42.5.11.75.25Z"/>
  <path class="cls-1" d="M341.36,81.05c-.28,0-.56-.01-.84,0-.18,0-.45-.1-.53.12-.09.27.13.47.34.61.46.31.97.33,1.45.1.53-.26.64.14.8.44.22.42-.18.46-.4.56-1.2.56-2.57.26-3.28-.69-.71-.96-.65-2.45.15-3.36.67-.76,1.79-1.01,2.69-.6.8.37,1.28,1.36,1.17,2.33-.04.35-.17.5-.53.47-.34-.03-.67,0-1.01,0ZM340.72,80.1c.27-.15.76.21.82-.27.05-.39-.32-.63-.74-.63-.43,0-.85.23-.84.65.02.42.5.11.75.25Z"/>
  <path class="cls-1" d="M320.84,78.06c.16.04.47.07.75.19.21.09.7.13.46.5-.17.27-.22.9-.88.62-.53-.23-1.02-.05-1.3.46-.32.59-.3,1.21.11,1.75.33.44.82.53,1.28.26.61-.35.65.21.82.48.28.45-.18.53-.42.62-.61.23-1.15.35-.26,1.01.38.28.2.79-.21,1.07-.38.26-.84.31-1.29.35-.23.02-.37-.06-.41-.31-.04-.29.14-.32.35-.34.25-.02.56-.03.59-.35.03-.29-.27-.3-.47-.38-.06-.02-.16-.15-.14-.17.5-.84-.34-.83-.71-1.09-.86-.62-1.23-1.83-.87-2.95.34-1.05,1.29-1.73,2.58-1.73Z"/>
  <path class="cls-1" d="M297.52,81.2c0-.39,0-.79,0-1.18,0-.31.13-.66-.43-.72-.3-.03-.35-.97-.05-1.02.53-.1.46-.44.53-.79.23-1.12,1.35-1.72,2.47-1.36.2.07.42.16.29.4-.15.25.08.75-.47.75-.17,0-.34-.02-.5.03-.25.08-.29.31-.31.55-.03.28.16.34.37.32.5-.06.53.24.53.62,0,.37-.05.61-.5.55-.44-.06-.41.25-.41.54,0,.87-.04,1.74.01,2.61.04.66-.36.56-.74.55-.4,0-.89.14-.8-.58.05-.41,0-.84,0-1.26Z"/>
  <path class="cls-1" d="M334.83,83.18c-.33,0-.8-.11-1.22-.34-.21-.12-.71-.15-.42-.6.2-.31.36-.86.94-.43.11.08.25.14.38.17.35.06.82.24.98-.18.19-.5-.37-.5-.66-.67-.05-.03-.1-.05-.15-.07-.71-.27-1.37-.59-1.39-1.48-.01-.66.35-1.1.95-1.35.73-.3,2.04-.13,2.5.29.22.21.11.35-.03.48-.2.18-.24.63-.69.42-.42-.2-1.03-.58-1.24,0-.21.57.57.54.93.7,1.02.46,1.43.95,1.28,1.72-.16.82-.93,1.33-2.15,1.34Z"/>
  <path class="cls-1" d="M272.29,78.85c.45-.39.8-.78,1.36-.76.24,0,.67-.12.58.32-.07.34.16.89-.49.98-1.08.15-1.28.38-1.29,1.43,0,.45-.02.9,0,1.34.03.55.04.93-.75.92-.72-.01-.81-.27-.79-.87.04-1.03-.01-2.07.03-3.11.01-.31-.28-.8.28-.9.47-.08,1.04-.18,1.08.65Z"/>
  <path class="cls-1" d="M302.91,78.8c.29-.22.51-.43.78-.58.33-.18.74-.27,1.05-.05.3.21,0,.56,0,.84,0,.47-.38.33-.67.37-.64.09-1,.47-1.02,1.13-.01.67-.04,1.35,0,2.02.04.68-.41.52-.78.52-.36,0-.8.16-.77-.52.04-1.2,0-2.41.02-3.61,0-.26-.2-.64.3-.74.56-.11.84.01,1.09.62Z"/>
  <path class="cls-1" d="M331.44,80.68c0,.48,0,.96,0,1.43,0,.88-.46,1.2-1.3.94-.22-.07-.23-.21-.23-.38,0-1.35,0-2.7,0-4.05,0-.65.47-.42.78-.43.33-.01.78-.17.76.46-.02.67,0,1.35,0,2.02Z"/>
  <path class="cls-1" d="M175.49,8.89c2.8,0,5.59.01,8.39.02.31,0,.61.03.92.04.01.39-.27.34-.52.34-2.79,0-5.59,0-8.38,0-.23,0-.66.13-.4-.4Z"/>
  <path class="cls-1" d="M206.52,8.95c3.13-.07,6.25-.07,9.38,0,0,.4-.28.34-.52.34-2.79,0-5.57,0-8.36,0-.22,0-.56.11-.49-.33Z"/>
  <path class="cls-1" d="M356.34,61.55c-.65-.06-.77-.72-1.26-.99-.25.35.07.79-.41,1.29,0-1.01-.02-1.82.01-2.63.01-.32.33-.23.54-.24.43-.02.86,0,1.1.43.15.27.08.56-.12.78-.14.15-.36.23-.58.36.24.34.48.67.72,1ZM355.44,60.14c.25-.03.58-.03.58-.41,0-.42-.35-.42-.66-.45-.38-.04-.37.21-.38.47-.02.33.11.47.47.39Z"/>
  <path class="cls-1" d="M330.7,77.5c-.5-.02-.88-.2-.89-.72-.02-.56.37-.81.88-.8.46,0,.83.22.82.76,0,.53-.35.72-.81.76Z"/>
  <circle class="cls-3" cx="355.49" cy="60.32" r="2.69"/>
  <g>
    <path class="cls-1" d="M247.95,76.54c-.5,0-.99.09-1.43.25v8.11c.45.16.93.25,1.43.25s.99-.09,1.43-.25v-8.11c-.45-.16-.93-.25-1.43-.25Z"/>
    <path class="cls-2" d="M249.39,76.79v8.11c1.67-.59,2.87-2.18,2.87-4.05s-1.2-3.46-2.87-4.05Z"/>
    <path class="cls-4" d="M243.65,80.85c0,1.87,1.2,3.46,2.87,4.05v-8.11c-1.67.59-2.87,2.18-2.87,4.05Z"/>
  </g>
</svg>